# xmcd CD database file
#
# Track frame offsets:
#	150
#	20322
#	38396
#	51763
#	68933
#	84065
#	97549
#	118701
#	135381
#	144005
#	163037
#	174187
#	193519
#	211306
#	227875
#	247520
#
# Disc length: 3509 seconds
#
# Revision: 5
# Processed by: cddbd v1.5.2PL0 Copyright (c) Steve Scherf et al.
# Submitted via: CDex 1.51
#
DISCID=b10db310
DTITLE=Enya - Paint The Sky With Stars (The Best of Enya)
DYEAR=1997
DGENRE=Celtic
TTITLE0=Orinoco Flow
TTITLE1=Caribbean Blue
TTITLE2=Book Of Days
TTITLE3=Anywhere Is
TTITLE4=Only If...
TTITLE5=The Celts
TTITLE6=China Roses
TTITLE7=Shepherd Moons
TTITLE8=Ebudae
TTITLE9=Storms In Africa
TTITLE10=Watermark
TTITLE11=Paint The Sky With Stars
TTITLE12=Marble Halls
TTITLE13=On My Way Home
TTITLE14=The Memory Of Trees
TTITLE15=Boadicea
EXTD=YEAR: 1997
EXTT0=
EXTT1=
EXTT2=
EXTT3=
EXTT4=
EXTT5=
EXTT6=
EXTT7=
EXTT8=
EXTT9=
EXTT10=
EXTT11=
EXTT12=
EXTT13=
EXTT14=
EXTT15=
PLAYORDER=
